<?xml version="1.0" encoding="utf-8"?>
<!-- Generator: Adobe Illustrator 16.0.0, SVG Export Plug-In . SVG Version: 6.00 Build 0)  -->
<!DOCTYPE svg PUBLIC "-//W3C//DTD SVG 1.1//EN" "http://www.w3.org/Graphics/SVG/1.1/DTD/svg11.dtd">
<svg version="1.1" id="pjtools_x5F_pro" xmlns="http://www.w3.org/2000/svg" xmlns:xlink="http://www.w3.org/1999/xlink" x="0px"
	 y="0px" width="363px" height="34px" viewBox="0 0 363 34" enable-background="new 0 0 363 34" xml:space="preserve">
<g>
	<path fill="currentColor" d="M9.865,19.31L8.559,25.74c-0.188,0.928-0.282,1.528-0.282,1.802s0.063,0.566,0.19,0.879
		c-1.006,0.498-1.909,0.747-2.71,0.747c-0.508,0-0.762-0.205-0.762-0.615c0-0.215,0.098-0.825,0.293-1.831l1.538-7.676
		c-2.471-0.557-3.706-1.377-3.706-2.461c0-0.225,0.049-0.513,0.146-0.864c1.053,0.869,2.33,1.498,3.832,1.889l1.016-5.068
		c0.167-0.83,0.25-1.42,0.25-1.772c0-0.342-0.117-0.654-0.352-0.938C9.312,9.344,10.215,9.1,10.723,9.1
		c0.605,0,0.908,0.352,0.908,1.055c0,0.166-0.159,1.021-0.477,2.563l-1.012,5.156c2.807,0,5.102-0.693,6.885-2.08
		c1.784-1.387,2.675-3.164,2.675-5.332c0-1.191-0.466-2.151-1.399-2.878s-2.166-1.091-3.699-1.091c-4.57,0-8.237,1.914-11.001,5.742
		c-0.234-0.605-0.352-1.079-0.352-1.421c0-1.475,1.321-2.849,3.962-4.124s5.5-1.912,8.577-1.912c4.668,0,7.002,1.719,7.002,5.156
		c0,2.51-1.211,4.702-3.634,6.577s-5.253,2.813-8.49,2.813L9.865,19.31z"/>
	<path fill="currentColor" d="M35.347,6.899l-2.578,12.973c-0.918,4.588-2.393,7.945-4.424,10.073s-4.189,3.192-6.475,3.192
		c-1.182,0-2.275-0.325-3.281-0.974c-1.006-0.65-1.509-1.355-1.509-2.117c0-0.928,0.659-1.782,1.978-2.563
		c0,1.123,0.349,2.017,1.047,2.681s1.643,0.996,2.834,0.996c1.748,0,3.069-0.666,3.962-1.999s1.707-3.839,2.439-7.521l2.842-14.293
		c-1.396,0.27-2.275,0.405-2.637,0.405c-1.25,0-1.948-0.786-2.095-2.358c0.43,0.244,0.947,0.366,1.553,0.366
		c0.771,0,2.046-0.186,3.823-0.557l1.421-0.308c1.26-0.264,2.354-0.396,3.281-0.396c1.074,0,1.836,0.215,2.285,0.645
		c0.449,0.43,0.757,1.237,0.923,2.419c-0.879-0.587-1.904-0.881-3.076-0.881C37.036,6.683,36.265,6.755,35.347,6.899z"/>
	<path fill="currentColor" d="M51.768,21.199c0.264,0.479,0.396,0.898,0.396,1.26c0,0.957-0.808,2.014-2.424,3.172
		c-1.616,1.156-3.088,1.735-4.417,1.735c-1.172,0-2.126-0.522-2.864-1.567s-1.106-2.393-1.106-4.043c0-1.836,0.483-4.448,1.45-7.837
		l0.674-2.461h-2.476c-1.035,0-1.86,0.146-2.476,0.439c0.566-1.029,1.035-1.674,1.406-1.936c0.371-0.262,1.001-0.393,1.89-0.393
		h2.212l0.293-1.014c0.449-1.508,0.986-2.544,1.611-3.107c0.625-0.563,1.563-0.845,2.813-0.845c0.146,0,0.381,0.01,0.703,0.029
		C48.691,5.611,47.9,7.257,47.08,9.568h7.734c1.357,0,2.393-0.176,3.105-0.529c-0.244,1-0.569,1.654-0.974,1.959
		c-0.405,0.306-1.16,0.459-2.263,0.459H46.45c-0.098,0.322-0.171,0.562-0.22,0.718c-1.182,4.023-1.772,7.061-1.772,9.111
		c0,2.266,0.815,3.398,2.446,3.398c0.84,0,1.755-0.356,2.747-1.069S51.348,22.098,51.768,21.199z"/>
	<path fill="currentColor" d="M123.193,14.783l-1.172-0.718c-1.445,1.66-2.642,2.888-3.589,3.685c-0.947,0.796-2.354,1.75-4.219,2.863
		l-1.304-2.373l-1.67-3.076c1.689-1.006,2.534-2.056,2.534-3.149c0-0.771-0.664-1.411-1.992-1.919
		c-2.158,1.133-3.237,2.627-3.237,4.482c0,0.177,0.016,0.364,0.043,0.56c-2.412,3.812-4.178,6.349-5.28,7.577
		c-1.187,1.324-2.366,1.985-3.538,1.985c-1.211,0-1.816-0.825-1.816-2.476c0-0.596,0.151-1.685,0.454-3.267l3.398-17.622
		c-1.104,0.732-2.393,1.099-3.867,1.099s-2.798-0.332-3.97-0.996v0.337c0,1.875,1.123,2.813,3.369,2.813
		c0.283,0,0.615-0.029,0.996-0.088L96.34,14.543c-0.932,0.411-1.816,0.621-2.649,0.621c-1.758,0-3.447-0.552-5.068-1.655
		c-1.582-2.246-3.564-3.467-5.947-3.662c-0.322,0.43-0.483,0.879-0.483,1.348c0,0.303,0.122,0.674,0.366,1.113
		c-0.371-0.088-0.723-0.132-1.055-0.132c-2.168,0-4.05,0.835-5.647,2.505c-0.002,0.002-0.004,0.005-0.006,0.007
		c-0.792,0.306-1.552,0.477-2.271,0.477c-1.758,0-3.447-0.552-5.068-1.655c-1.582-2.246-3.564-3.467-5.947-3.662
		c-0.322,0.43-0.483,0.879-0.483,1.348c0,0.303,0.122,0.674,0.366,1.113c-0.371-0.088-0.723-0.132-1.055-0.132
		c-2.168,0-4.05,0.835-5.647,2.505s-2.395,3.643-2.395,5.918c0,2.002,0.618,3.631,1.853,4.886s2.834,1.882,4.797,1.882
		c2.568,0,4.81-1.05,6.724-3.149s2.871-4.561,2.871-7.383c0-0.186-0.015-0.396-0.044-0.63c1.377,0.449,2.607,0.674,3.691,0.674
		c0.372,0,0.742-0.036,1.11-0.093c-0.59,1.16-0.89,2.43-0.89,3.813c0,2.002,0.618,3.631,1.853,4.886s2.834,1.882,4.797,1.882
		c2.568,0,4.81-1.05,6.724-3.149s2.871-4.561,2.871-7.383c0-0.186-0.015-0.396-0.044-0.63c1.377,0.449,2.607,0.674,3.691,0.674
		c0.885,0,1.758-0.174,2.62-0.494l-0.555,2.793c-0.293,1.465-0.439,2.598-0.439,3.398c0,1.426,0.352,2.581,1.055,3.465
		s1.626,1.325,2.769,1.325c1.572,0,3.379-1.091,5.42-3.274c1.659-1.773,3.311-4.104,4.957-6.971c0.354,0.841,0.85,1.781,1.503,2.833
		l1.172,1.89c-2.236,1.074-3.831,2.002-4.783,2.783s-1.428,1.553-1.428,2.314c0,0.713,0.347,1.323,1.04,1.831
		s1.533,0.762,2.52,0.762c1.68,0,3.145-0.555,4.395-1.663c1.25-1.107,1.875-2.409,1.875-3.903c0-0.674-0.166-1.382-0.498-2.124
		C118.354,19.949,121.094,17.596,123.193,14.783z M64.818,23.241c-1.191,1.665-2.611,2.498-4.262,2.499
		c-1.221-0.001-2.219-0.448-2.995-1.342c-0.775-0.893-1.164-2.032-1.166-3.419c0.001-1.914,0.644-3.618,1.927-5.111
		c1.284-1.493,2.755-2.241,4.416-2.242c0.332,0.001,0.747,0.055,1.245,0.161c0.684,0.537,1.431,0.928,2.241,1.172
		c0.252,0.752,0.379,1.528,0.381,2.329C66.605,19.593,66.009,21.577,64.818,23.241z M84.931,23.241
		c-1.191,1.665-2.611,2.498-4.262,2.499c-1.221-0.001-2.219-0.448-2.995-1.342c-0.775-0.893-1.164-2.032-1.166-3.419
		c0.001-1.914,0.644-3.618,1.927-5.111c1.284-1.493,2.755-2.241,4.416-2.242c0.332,0.001,0.747,0.055,1.245,0.161
		c0.684,0.537,1.431,0.928,2.241,1.172c0.252,0.752,0.379,1.528,0.381,2.329C86.717,19.593,86.121,21.577,84.931,23.241z
		 M112.017,27.08c-0.537,0.581-1.235,0.872-2.095,0.872c-1.162,0-1.743-0.4-1.743-1.201c0-0.85,1.436-2.046,4.307-3.589
		c0.225,0.566,0.337,1.123,0.337,1.67C112.822,25.75,112.554,26.5,112.017,27.08z"/>
	<path fill="currentColor" d="M135.241,19.31l-1.306,6.431c-0.188,0.928-0.282,1.528-0.282,1.802s0.063,0.566,0.19,0.879
		c-1.006,0.498-1.909,0.747-2.71,0.747c-0.508,0-0.762-0.205-0.762-0.615c0-0.215,0.098-0.825,0.293-1.831l1.538-7.676
		c-2.471-0.557-3.706-1.377-3.706-2.461c0-0.225,0.049-0.513,0.146-0.864c1.053,0.869,2.33,1.498,3.832,1.889l1.016-5.068
		c0.167-0.83,0.25-1.42,0.25-1.772c0-0.342-0.117-0.654-0.352-0.938c1.299-0.488,2.202-0.732,2.71-0.732
		c0.605,0,0.908,0.352,0.908,1.055c0,0.166-0.159,1.021-0.477,2.563l-1.012,5.156c2.807,0,5.102-0.693,6.885-2.08
		c1.784-1.387,2.675-3.164,2.675-5.332c0-1.191-0.466-2.151-1.399-2.878s-2.166-1.091-3.699-1.091c-4.57,0-8.237,1.914-11.001,5.742
		c-0.234-0.605-0.352-1.079-0.352-1.421c0-1.475,1.321-2.849,3.962-4.124s5.5-1.912,8.577-1.912c4.668,0,7.002,1.719,7.002,5.156
		c0,2.51-1.211,4.702-3.634,6.577s-5.253,2.813-8.49,2.813L135.241,19.31z"/>
	<path fill="currentColor" d="M153.428,26.897c-0.667,0.313-1.202,0.469-1.604,0.469c-1.001,0-1.501-0.439-1.501-1.318
		c0-0.449,0.176-1.567,0.527-3.354l0.732-3.647c0.449-2.168,0.674-3.774,0.674-4.819c0-0.566-0.161-1.04-0.483-1.421
		c1.025-0.352,1.86-0.527,2.505-0.527c0.684,0,1.025,0.435,1.025,1.304c0,0.537-0.242,1.948-0.727,4.233l-0.829,4.263
		c1.844-3.584,3.7-6.37,5.568-8.357c1.868-1.987,3.563-2.981,5.085-2.981c0.536,0,1,0.154,1.39,0.461s0.585,0.681,0.585,1.121
		c0,0.684-0.742,1.592-2.227,2.725c-0.371-0.771-0.897-1.157-1.58-1.157c-1.239,0-2.818,1.318-4.739,3.955
		c-1.19,1.641-2.224,3.333-3.102,5.075c-0.877,1.744-1.316,2.986-1.316,3.729L153.428,26.897z"/>
	<path fill="currentColor" d="M181.787,16.204c0.029,0.234,0.044,0.444,0.044,0.63c0,2.822-0.957,5.283-2.871,7.383
		s-4.155,3.149-6.724,3.149c-1.963,0-3.562-0.627-4.797-1.882s-1.853-2.884-1.853-4.886c0-2.275,0.798-4.248,2.395-5.918
		s3.479-2.505,5.647-2.505c0.332,0,0.684,0.044,1.055,0.132c-0.244-0.439-0.366-0.811-0.366-1.113c0-0.469,0.161-0.918,0.483-1.348
		c2.383,0.195,4.365,1.416,5.947,3.662c1.621,1.104,3.311,1.655,5.068,1.655c1.143,0,2.378-0.386,3.706-1.157l0.732,1.245
		c-1.553,1.084-3.145,1.626-4.775,1.626C184.395,16.878,183.164,16.653,181.787,16.204z M178.462,14.959
		c-0.811-0.244-1.558-0.635-2.241-1.172c-0.498-0.106-0.913-0.16-1.245-0.161c-1.66,0.001-3.132,0.749-4.416,2.242
		c-1.283,1.493-1.926,3.197-1.927,5.111c0.001,1.387,0.39,2.526,1.166,3.419c0.775,0.894,1.774,1.341,2.995,1.342
		c1.65-0.001,3.071-0.834,4.262-2.499c1.19-1.664,1.787-3.648,1.788-5.953C178.841,16.487,178.714,15.711,178.462,14.959z"/>
	<path fill="currentColor" d="M214.512,2.391c-3.604,1.357-6.621,3.799-9.053,7.324s-3.647,7.231-3.647,11.118
		c0,2.441,0.656,4.487,1.97,6.138s3.011,2.559,5.091,2.725c-1.064,1.094-2.153,1.641-3.267,1.641c-1.768,0-3.323-1.076-4.666-3.23
		c-1.343-2.152-2.014-4.646-2.014-7.478c0-5.029,2.041-9.658,6.123-13.887c1.338-1.377,2.861-2.622,4.57-3.735
		s2.949-1.67,3.721-1.67C213.828,1.336,214.219,1.688,214.512,2.391z"/>
	<path fill="currentColor" d="M213.854,10.621c0.689-0.15,1.68-0.42,3.09-0.87c5.31-1.709,10.05-2.88,13.35-2.88
		c5.039,0,9.329,2.49,9.329,8.79c0,7.44-7.35,10.32-17.489,11.339c-0.09-0.45-0.479-1.5-0.78-2.04c9.27-0.87,15.93-3.39,15.93-9.18
		c0-4.709-3.24-6.75-7.199-6.75c-4.29,0-12,2.49-14.729,3.66c0,0.3-0.271,0.6-0.54,0.69L213.854,10.621z M233.233,2.101
		c1.62,1.26,3.149,2.88,4.02,4.17l-1.199,0.93c-0.87-1.29-2.4-3.03-3.931-4.17L233.233,2.101z M237.613,0.871
		c1.68,1.29,3.03,2.7,3.99,4.11l-1.2,0.93c-0.96-1.41-2.43-2.97-3.93-4.14L237.613,0.871z"/>
	<path fill="currentColor" d="M258.254,11.221c0,2.58-2.011,4.11-4.2,4.11c-2.22,0-4.2-1.53-4.2-4.11c0-2.49,1.98-4.14,4.2-4.14
		C256.243,7.081,258.254,8.731,258.254,11.221z M251.653,11.19c0,1.68,0.99,2.82,2.4,2.82c1.439,0,2.399-1.14,2.399-2.79
		c0-1.68-0.96-2.82-2.399-2.82C252.644,8.401,251.653,9.511,251.653,11.19z"/>
	<path fill="currentColor" d="M272.623,14.011c0.15-0.15,0.899-0.48,1.47-0.48c1.08,0,3.27,1.979,3.27,5.549
		c0,5.22-3.779,8.28-5.939,8.28c-1.8,0-2.67-1.2-3.149-2.25c-0.78,1.08-2.16,2.25-3.36,2.25c-2.399,0-4.56-2.58-4.56-6.42
		c0-3.39,1.53-5.7,4.439-7.53l0.54,0.72c-1.649,1.56-2.43,3.51-2.43,5.85c0,3.3,1.59,5.46,3.09,5.46c1.56,0,2.16-1.65,2.13-3.15
		c-0.03-1.83-0.24-4.109-0.36-5.399l2.49-0.57l0.24,0.15c-0.09,1.68-0.39,3.99-0.42,5.82c-0.03,1.59,0.72,3.21,2.37,3.21
		c1.35,0,2.819-0.84,2.819-5.279c0-3.36-1.47-5.19-2.64-5.82V14.011z"/>
	<path fill="currentColor" d="M287.893,11.221c0,2.58-2.01,4.11-4.199,4.11c-2.221,0-4.2-1.53-4.2-4.11c0-2.49,1.979-4.14,4.2-4.14
		C285.883,7.081,287.893,8.731,287.893,11.221z M281.293,11.19c0,1.68,0.99,2.82,2.4,2.82c1.439,0,2.399-1.14,2.399-2.79
		c0-1.68-0.96-2.82-2.399-2.82C282.283,8.401,281.293,9.511,281.293,11.19z"/>
	<path fill="currentColor" d="M290.244,30.281c3.604-1.348,6.621-3.787,9.053-7.316c2.432-3.531,3.647-7.234,3.647-11.111
		c0-2.451-0.657-4.502-1.971-6.152s-3.01-2.559-5.09-2.725c1.055-1.094,2.143-1.641,3.267-1.641c1.767,0,3.322,1.077,4.665,3.23
		s2.015,4.651,2.015,7.493c0,5.02-2.042,9.644-6.123,13.872c-1.329,1.367-2.85,2.609-4.563,3.728s-2.957,1.678-3.728,1.678
		C290.927,31.336,290.537,30.984,290.244,30.281z"/>
	<path fill="currentColor" d="M306.813,10.621c0.69-0.15,1.68-0.42,3.09-0.87c5.311-1.709,10.05-2.88,13.35-2.88
		c5.04,0,9.33,2.49,9.33,8.79c0,7.44-7.35,10.32-17.489,11.339c-0.091-0.45-0.48-1.5-0.78-2.04c9.27-0.87,15.93-3.39,15.93-9.18
		c0-4.709-3.24-6.75-7.2-6.75c-4.29,0-11.999,2.49-14.729,3.66c0,0.3-0.27,0.6-0.54,0.69L306.813,10.621z M326.192,2.101
		c1.619,1.26,3.149,2.88,4.02,4.17l-1.2,0.93c-0.87-1.29-2.399-3.03-3.93-4.17L326.192,2.101z M330.572,0.871
		c1.68,1.29,3.029,2.7,3.989,4.11l-1.2,0.93c-0.96-1.41-2.43-2.97-3.93-4.14L330.572,0.871z"/>
	<path fill="currentColor" d="M343.832,25.5c0-1.11,0.75-1.92,1.771-1.92c1.05,0,1.739,0.81,1.739,1.92c0,1.05-0.689,1.86-1.77,1.86
		C344.462,27.36,343.832,26.49,343.832,25.5z M346.563,20.641h-1.98l-0.42-16.47h2.82L346.563,20.641z"/>
</g>
</svg>
